<svg width="16" height="16" viewBox="0 0 16 16" fill="none" xmlns="http://www.w3.org/2000/svg">
<path d="M8.97978 5.02021C9.07353 5.11384 9.20061 5.16644 9.33311 5.16644C9.46561 5.16644 9.59269 5.11384 9.68644 5.02021L10.1664 4.54021V11.3335C10.1664 11.4662 10.2191 11.5933 10.3129 11.6871C10.4067 11.7809 10.5338 11.8335 10.6664 11.8335C10.7991 11.8335 10.9262 11.7809 11.02 11.6871C11.1138 11.5933 11.1664 11.4662 11.1664 11.3335V4.54021L11.6464 5.02021C11.6922 5.06934 11.7474 5.10874 11.8088 5.13607C11.8701 5.16339 11.9363 5.17809 12.0034 5.17927C12.0706 5.18046 12.1372 5.16811 12.1995 5.14296C12.2618 5.11781 12.3183 5.08038 12.3658 5.0329C12.4133 4.98542 12.4507 4.92887 12.4759 4.86661C12.501 4.80435 12.5134 4.73766 12.5122 4.67053C12.511 4.60339 12.4963 4.53719 12.469 4.47585C12.4416 4.41452 12.4022 4.35932 12.3531 4.31354L11.0198 2.98021C10.926 2.88658 10.7989 2.83398 10.6664 2.83398C10.5339 2.83398 10.4069 2.88658 10.3131 2.98021L8.97978 4.31354C8.88614 4.40729 8.83355 4.53438 8.83355 4.66688C8.83355 4.79938 8.88614 4.92646 8.97978 5.02021ZM5.83311 11.4602L6.31311 10.9802C6.35888 10.9311 6.41408 10.8917 6.47542 10.8644C6.53675 10.837 6.60296 10.8223 6.6701 10.8212C6.73723 10.82 6.80392 10.8323 6.86618 10.8575C6.92843 10.8826 6.98499 10.92 7.03247 10.9675C7.07995 11.015 7.11738 11.0716 7.14253 11.1338C7.16767 11.1961 7.18002 11.2628 7.17884 11.3299C7.17765 11.397 7.16296 11.4632 7.13563 11.5246C7.1083 11.5859 7.0689 11.6411 7.01978 11.6869L5.68644 13.0202C5.59269 13.1138 5.46561 13.1664 5.33311 13.1664C5.20061 13.1664 5.07353 13.1138 4.97978 13.0202L3.64644 11.6869C3.59732 11.6411 3.55792 11.5859 3.53059 11.5246C3.50326 11.4632 3.48857 11.397 3.48738 11.3299C3.4862 11.2628 3.49855 11.1961 3.52369 11.1338C3.54884 11.0716 3.58627 11.015 3.63375 10.9675C3.68123 10.92 3.73779 10.8826 3.80004 10.8575C3.8623 10.8323 3.92899 10.82 3.99613 10.8212C4.06326 10.8223 4.12947 10.837 4.1908 10.8644C4.25214 10.8917 4.30734 10.9311 4.35311 10.9802L4.83311 11.4602V4.66688C4.83311 4.53427 4.88579 4.40709 4.97956 4.31332C5.07332 4.21956 5.2005 4.16688 5.33311 4.16688C5.46572 4.16688 5.5929 4.21956 5.68666 4.31332C5.78043 4.40709 5.83311 4.53427 5.83311 4.66688V11.4602Z" fill="#231F20" fill-opacity="0.8"/>
</svg>
