<svg width="16" height="16" viewBox="0 0 16 16" fill="none" xmlns="http://www.w3.org/2000/svg">
<path d="M5.80671 5.14001L7.33337 3.60668V10C7.33337 10.1768 7.40361 10.3464 7.52864 10.4714C7.65366 10.5964 7.82323 10.6667 8.00004 10.6667C8.17685 10.6667 8.34642 10.5964 8.47144 10.4714C8.59647 10.3464 8.66671 10.1768 8.66671 10V3.60668L10.1934 5.14001C10.2553 5.2025 10.3291 5.25209 10.4103 5.28594C10.4916 5.31979 10.5787 5.33721 10.6667 5.33721C10.7547 5.33721 10.8419 5.31979 10.9231 5.28594C11.0043 5.25209 11.0781 5.2025 11.14 5.14001C11.2025 5.07804 11.2521 5.0043 11.286 4.92306C11.3198 4.84182 11.3372 4.75469 11.3372 4.66668C11.3372 4.57867 11.3198 4.49153 11.286 4.41029C11.2521 4.32906 11.2025 4.25532 11.14 4.19335L8.47337 1.52668C8.40997 1.46599 8.33521 1.41841 8.25337 1.38668C8.09107 1.32 7.90901 1.32 7.74671 1.38668C7.66487 1.41841 7.59011 1.46599 7.52671 1.52668L4.86004 4.19335C4.79788 4.2555 4.74857 4.3293 4.71493 4.41051C4.68129 4.49173 4.66398 4.57877 4.66398 4.66668C4.66398 4.75459 4.68129 4.84163 4.71493 4.92285C4.74857 5.00406 4.79788 5.07785 4.86004 5.14001C4.9222 5.20217 4.99599 5.25148 5.07721 5.28512C5.15842 5.31876 5.24547 5.33607 5.33337 5.33607C5.42128 5.33607 5.50833 5.31876 5.58954 5.28512C5.67075 5.25148 5.74455 5.20217 5.80671 5.14001ZM14 9.33335C13.8232 9.33335 13.6537 9.40358 13.5286 9.52861C13.4036 9.65363 13.3334 9.8232 13.3334 10V12.6667C13.3334 12.8435 13.2631 13.0131 13.1381 13.1381C13.0131 13.2631 12.8435 13.3333 12.6667 13.3333H3.33337C3.15656 13.3333 2.98699 13.2631 2.86197 13.1381C2.73695 13.0131 2.66671 12.8435 2.66671 12.6667V10C2.66671 9.8232 2.59647 9.65363 2.47145 9.52861C2.34642 9.40358 2.17685 9.33335 2.00004 9.33335C1.82323 9.33335 1.65366 9.40358 1.52864 9.52861C1.40361 9.65363 1.33337 9.8232 1.33337 10V12.6667C1.33337 13.1971 1.54409 13.7058 1.91916 14.0809C2.29423 14.456 2.80294 14.6667 3.33337 14.6667H12.6667C13.1971 14.6667 13.7058 14.456 14.0809 14.0809C14.456 13.7058 14.6667 13.1971 14.6667 12.6667V10C14.6667 9.8232 14.5965 9.65363 14.4714 9.52861C14.3464 9.40358 14.1769 9.33335 14 9.33335Z" fill="#231F20"/>
</svg>
