<svg width="16" height="16" viewBox="0 0 16 16" fill="none" xmlns="http://www.w3.org/2000/svg">
<path d="M1.66797 2.5C1.66797 2.36739 1.72065 2.24021 1.81442 2.14645C1.90818 2.05268 2.03536 2 2.16797 2H2.5013C2.98753 2 3.45385 2.19315 3.79766 2.53697C4.14148 2.88079 4.33464 3.3471 4.33464 3.83333V12.1667C4.33464 12.6529 4.14148 13.1192 3.79766 13.463C3.45385 13.8068 2.98753 14 2.5013 14H2.16797C2.03536 14 1.90818 13.9473 1.81442 13.8536C1.72065 13.7598 1.66797 13.6326 1.66797 13.5C1.66797 13.3674 1.72065 13.2402 1.81442 13.1464C1.90818 13.0527 2.03536 13 2.16797 13H2.5013C2.9613 13 3.33464 12.6267 3.33464 12.1667V3.83333C3.33464 3.37333 2.9613 3 2.5013 3H2.16797C2.03536 3 1.90818 2.94732 1.81442 2.85355C1.72065 2.75979 1.66797 2.63261 1.66797 2.5ZM5.33464 3.83333C5.33464 3.3471 5.52779 2.88079 5.87161 2.53697C6.21542 2.19315 6.68174 2 7.16797 2H8.83464C9.32087 2 9.78718 2.19315 10.131 2.53697C10.4748 2.88079 10.668 3.3471 10.668 3.83333V12.1667C10.668 12.6529 10.4748 13.1192 10.131 13.463C9.78718 13.8068 9.32087 14 8.83464 14H7.16797C6.68174 14 6.21542 13.8068 5.87161 13.463C5.52779 13.1192 5.33464 12.6529 5.33464 12.1667V3.83333ZM7.16797 3C6.70797 3 6.33464 3.37333 6.33464 3.83333V12.1667C6.33464 12.6267 6.70797 13 7.16797 13H8.83464C9.29464 13 9.66797 12.6267 9.66797 12.1667V3.83333C9.66797 3.37333 9.29464 3 8.83464 3H7.16797ZM13.8346 2C13.9672 2 14.0944 2.05268 14.1882 2.14645C14.282 2.24021 14.3346 2.36739 14.3346 2.5C14.3346 2.63261 14.282 2.75979 14.1882 2.85355C14.0944 2.94732 13.9672 3 13.8346 3H13.5013C13.0413 3 12.668 3.37333 12.668 3.83333V12.1667C12.668 12.6267 13.0413 13 13.5013 13H13.8346C13.9672 13 14.0944 13.0527 14.1882 13.1464C14.282 13.2402 14.3346 13.3674 14.3346 13.5C14.3346 13.6326 14.282 13.7598 14.1882 13.8536C14.0944 13.9473 13.9672 14 13.8346 14H13.5013C13.0151 14 12.5488 13.8068 12.2049 13.463C11.8611 13.1192 11.668 12.6529 11.668 12.1667V3.83333C11.668 3.3471 11.8611 2.88079 12.2049 2.53697C12.5488 2.19315 13.0151 2 13.5013 2H13.8346Z" fill="#231F20"/>
</svg>
