<svg width="16" height="16" viewBox="0 0 16 16" fill="none" xmlns="http://www.w3.org/2000/svg">
<path d="M14.3996 5.89908V11.6007C14.3996 12.1311 14.1889 12.6398 13.8138 13.0149C13.4388 13.39 12.93 13.6007 12.3996 13.6007H3.59961C3.06918 13.6007 2.56047 13.39 2.1854 13.0149C1.81032 12.6398 1.59961 12.1311 1.59961 11.6007V5.89908L7.79641 9.54548C7.85797 9.58179 7.92814 9.60094 7.99961 9.60094C8.07108 9.60094 8.14125 9.58179 8.20281 9.54548L14.3996 5.89908ZM12.3996 3.20068C12.8917 3.20061 13.3666 3.38197 13.7334 3.71008C14.1002 4.03818 14.3331 4.49 14.3876 4.97908L7.99961 8.73668L1.61161 4.97908C1.66614 4.49 1.89907 4.03818 2.26585 3.71008C2.63262 3.38197 3.10749 3.20061 3.59961 3.20068H12.3996Z" fill="#FCC118"/>
</svg>
