<svg width="10" height="16" viewBox="0 0 10 16" fill="none" xmlns="http://www.w3.org/2000/svg">
<g clip-path="url(#clip0_6_47708)">
<path d="M8.5 0H1.5C1.10218 0 0.720644 0.158035 0.43934 0.43934C0.158035 0.720644 0 1.10218 0 1.5L0 14.5C0 14.8978 0.158035 15.2794 0.43934 15.5607C0.720644 15.842 1.10218 16 1.5 16H8.5C8.89783 16 9.27936 15.842 9.56066 15.5607C9.84196 15.2794 10 14.8978 10 14.5V1.5C10 1.10218 9.84196 0.720644 9.56066 0.43934C9.27936 0.158035 8.89783 0 8.5 0ZM5 15C4.86885 14.9999 4.73901 14.974 4.61788 14.9237C4.49675 14.8735 4.3867 14.7998 4.29403 14.707C4.10687 14.5196 4.00182 14.2655 4.002 14.0007C4.00209 13.8695 4.02801 13.7397 4.07827 13.6185C4.12854 13.4974 4.20218 13.3874 4.29497 13.2947C4.48239 13.1075 4.73647 13.0025 5.00133 13.0027C5.2662 13.0028 5.52014 13.1082 5.7073 13.2956C5.89446 13.4831 5.99951 13.7371 5.99933 14.002C5.99916 14.2669 5.89377 14.5208 5.70636 14.708C5.51895 14.8951 5.26486 15.0002 5 15ZM8.5 11.6267C8.4993 11.7255 8.45974 11.82 8.38988 11.8899C8.32002 11.9597 8.22546 11.9993 8.12667 12H1.87467C1.77565 12 1.68069 11.9607 1.61068 11.8907C1.54067 11.8206 1.50133 11.7257 1.50133 11.6267V1.87533C1.50133 1.77632 1.54067 1.68136 1.61068 1.61135C1.68069 1.54133 1.77565 1.502 1.87467 1.502H8.124C8.2228 1.5027 8.31735 1.54226 8.38721 1.61212C8.45708 1.68198 8.49664 1.77653 8.49733 1.87533L8.5 11.6267Z" fill="#0070B9"/>
</g>
<defs>
<clipPath id="clip0_6_47708">
<rect width="10" height="16" fill="white"/>
</clipPath>
</defs>
</svg>
