<svg width="16" height="16" viewBox="0 0 16 16" fill="none" xmlns="http://www.w3.org/2000/svg">
<path d="M10.0039 8C10.0039 8.53043 9.79319 9.03914 9.41812 9.41421C9.04305 9.78929 8.53434 10 8.00391 10C7.47347 10 6.96477 9.78929 6.58969 9.41421C6.21462 9.03914 6.00391 8.53043 6.00391 8C6.00391 7.46957 6.21462 6.96086 6.58969 6.58579C6.96477 6.21071 7.47347 6 8.00391 6C8.53434 6 9.04305 6.21071 9.41812 6.58579C9.79319 6.96086 10.0039 7.46957 10.0039 8Z" stroke="#0070B9" stroke-linecap="round" stroke-linejoin="round"/>
<path d="M1.33594 7.9987C2.4026 5.26736 4.89327 3.33203 8.0026 3.33203C11.1119 3.33203 13.6026 5.26736 14.6693 7.9987C13.6026 10.73 11.1119 12.6654 8.0026 12.6654C4.89327 12.6654 2.4026 10.73 1.33594 7.9987Z" stroke="#0070B9" stroke-linecap="round" stroke-linejoin="round"/>
</svg>
