<svg width="16" height="11" viewBox="0 0 16 11" fill="none" xmlns="http://www.w3.org/2000/svg">
<path d="M4.66146 3.16667C4.66146 3.34348 4.59122 3.51305 4.4662 3.63807C4.34117 3.7631 4.1716 3.83333 3.99479 3.83333C3.81798 3.83333 3.64841 3.7631 3.52339 3.63807C3.39836 3.51305 3.32812 3.34348 3.32812 3.16667C3.32812 2.98986 3.39836 2.82029 3.52339 2.69526C3.64841 2.57024 3.81798 2.5 3.99479 2.5C4.1716 2.5 4.34117 2.57024 4.4662 2.69526C4.59122 2.82029 4.66146 2.98986 4.66146 3.16667ZM4.66146 5.16667C4.66146 5.34348 4.59122 5.51305 4.4662 5.63807C4.34117 5.7631 4.1716 5.83333 3.99479 5.83333C3.81798 5.83333 3.64841 5.7631 3.52339 5.63807C3.39836 5.51305 3.32812 5.34348 3.32812 5.16667C3.32812 4.98986 3.39836 4.82029 3.52339 4.69526C3.64841 4.57024 3.81798 4.5 3.99479 4.5C4.1716 4.5 4.34117 4.57024 4.4662 4.69526C4.59122 4.82029 4.66146 4.98986 4.66146 5.16667ZM6.66146 5.16667C6.66146 5.34348 6.59122 5.51305 6.4662 5.63807C6.34117 5.7631 6.1716 5.83333 5.99479 5.83333C5.81798 5.83333 5.64841 5.7631 5.52339 5.63807C5.39836 5.51305 5.32812 5.34348 5.32812 5.16667C5.32812 4.98986 5.39836 4.82029 5.52339 4.69526C5.64841 4.57024 5.81798 4.5 5.99479 4.5C6.1716 4.5 6.34117 4.57024 6.4662 4.69526C6.59122 4.82029 6.66146 4.98986 6.66146 5.16667ZM6.66146 3.16667C6.66146 3.34348 6.59122 3.51305 6.4662 3.63807C6.34117 3.7631 6.1716 3.83333 5.99479 3.83333C5.81798 3.83333 5.64841 3.7631 5.52339 3.63807C5.39836 3.51305 5.32812 3.34348 5.32812 3.16667C5.32812 2.98986 5.39836 2.82029 5.52339 2.69526C5.64841 2.57024 5.81798 2.5 5.99479 2.5C6.1716 2.5 6.34117 2.57024 6.4662 2.69526C6.59122 2.82029 6.66146 2.98986 6.66146 3.16667ZM8.66146 3.16667C8.66146 3.34348 8.59122 3.51305 8.4662 3.63807C8.34117 3.7631 8.1716 3.83333 7.99479 3.83333C7.81798 3.83333 7.64841 3.7631 7.52339 3.63807C7.39836 3.51305 7.32812 3.34348 7.32812 3.16667C7.32812 2.98986 7.39836 2.82029 7.52339 2.69526C7.64841 2.57024 7.81798 2.5 7.99479 2.5C8.1716 2.5 8.34117 2.57024 8.4662 2.69526C8.59122 2.82029 8.66146 2.98986 8.66146 3.16667ZM8.66146 5.16667C8.66146 5.34348 8.59122 5.51305 8.4662 5.63807C8.34117 5.7631 8.1716 5.83333 7.99479 5.83333C7.81798 5.83333 7.64841 5.7631 7.52339 5.63807C7.39836 5.51305 7.32812 5.34348 7.32812 5.16667C7.32812 4.98986 7.39836 4.82029 7.52339 4.69526C7.64841 4.57024 7.81798 4.5 7.99479 4.5C8.1716 4.5 8.34117 4.57024 8.4662 4.69526C8.59122 4.82029 8.66146 4.98986 8.66146 5.16667ZM10.6615 3.16667C10.6615 3.34348 10.5912 3.51305 10.4662 3.63807C10.3412 3.7631 10.1716 3.83333 9.99479 3.83333C9.81798 3.83333 9.64841 3.7631 9.52339 3.63807C9.39836 3.51305 9.32812 3.34348 9.32812 3.16667C9.32812 2.98986 9.39836 2.82029 9.52339 2.69526C9.64841 2.57024 9.81798 2.5 9.99479 2.5C10.1716 2.5 10.3412 2.57024 10.4662 2.69526C10.5912 2.82029 10.6615 2.98986 10.6615 3.16667ZM10.6615 5.16667C10.6615 5.34348 10.5912 5.51305 10.4662 5.63807C10.3412 5.7631 10.1716 5.83333 9.99479 5.83333C9.81798 5.83333 9.64841 5.7631 9.52339 5.63807C9.39836 5.51305 9.32812 5.34348 9.32812 5.16667C9.32812 4.98986 9.39836 4.82029 9.52339 4.69526C9.64841 4.57024 9.81798 4.5 9.99479 4.5C10.1716 4.5 10.3412 4.57024 10.4662 4.69526C10.5912 4.82029 10.6615 4.98986 10.6615 5.16667ZM12.6615 3.16667C12.6615 3.34348 12.5912 3.51305 12.4662 3.63807C12.3412 3.7631 12.1716 3.83333 11.9948 3.83333C11.818 3.83333 11.6484 3.7631 11.5234 3.63807C11.3984 3.51305 11.3281 3.34348 11.3281 3.16667C11.3281 2.98986 11.3984 2.82029 11.5234 2.69526C11.6484 2.57024 11.818 2.5 11.9948 2.5C12.1716 2.5 12.3412 2.57024 12.4662 2.69526C12.5912 2.82029 12.6615 2.98986 12.6615 3.16667ZM12.6615 5.16667C12.6615 5.34348 12.5912 5.51305 12.4662 5.63807C12.3412 5.7631 12.1716 5.83333 11.9948 5.83333C11.818 5.83333 11.6484 5.7631 11.5234 5.63807C11.3984 5.51305 11.3281 5.34348 11.3281 5.16667C11.3281 4.98986 11.3984 4.82029 11.5234 4.69526C11.6484 4.57024 11.818 4.5 11.9948 4.5C12.1716 4.5 12.3412 4.57024 12.4662 4.69526C12.5912 4.82029 12.6615 4.98986 12.6615 5.16667Z" fill="black"/>
<path d="M1.32813 4.5C1.32813 2.61467 1.32812 1.67133 1.91412 1.086C2.49946 0.5 3.44279 0.5 5.32812 0.5H10.6615C12.5468 0.5 13.4901 0.5 14.0755 1.086C14.6615 1.67133 14.6615 2.61467 14.6615 4.5V5.83333C14.6615 7.71867 14.6615 8.662 14.0755 9.24733C13.4901 9.83333 12.5468 9.83333 10.6615 9.83333H5.32812C3.44279 9.83333 2.49946 9.83333 1.91412 9.24733C1.32812 8.662 1.32813 7.71867 1.32813 5.83333V4.5Z" stroke="black"/>
<path d="M4.66406 7.83203H11.3307" stroke="black" stroke-linecap="round"/>
</svg>
