<svg width="36" height="36" viewBox="0 0 36 36" fill="none" xmlns="http://www.w3.org/2000/svg">
<g filter="url(#filter0_d_6_48482)">
<mask id="path-1-inside-1_6_48482" fill="white">
<path d="M2 1H30C32.2091 1 34 2.79086 34 5V29C34 31.2091 32.2091 33 30 33H2V1Z"/>
</mask>
<path d="M2 1H30C32.2091 1 34 2.79086 34 5V29C34 31.2091 32.2091 33 30 33H2V1Z" fill="white" shape-rendering="crispEdges"/>
<path d="M2 0H30C32.7614 0 35 2.23858 35 5H33C33 3.34315 31.6569 2 30 2H2V0ZM35 29C35 31.7614 32.7614 34 30 34H2V32H30C31.6569 32 33 30.6569 33 29H35ZM2 33V1V33ZM30 0C32.7614 0 35 2.23858 35 5V29C35 31.7614 32.7614 34 30 34V32C31.6569 32 33 30.6569 33 29V5C33 3.34315 31.6569 2 30 2V0Z" fill="#21232C" fill-opacity="0.24" mask="url(#path-1-inside-1_6_48482)"/>
<g clip-path="url(#clip0_6_48482)">
<path fill-rule="evenodd" clip-rule="evenodd" d="M12.5 12.5V13.5H23.5V12.5H12.5ZM12 11C11.45 11 11 11.45 11 12V14C11 14.55 11.45 15 12 15V21.75C12 22.44 12.56 23 13.25 23H22.75C23.44 23 24 22.44 24 21.75V15C24.55 15 25 14.55 25 14V12C25 11.45 24.55 11 24 11H12ZM13.5 21.5V15H22.5V21.5H13.5ZM16.75 17C16.34 17 16 17.34 16 17.75C16 18.16 16.34 18.5 16.75 18.5H19.25C19.66 18.5 20 18.16 20 17.75C20 17.34 19.66 17 19.25 17H16.75Z" fill="#231F20"/>
</g>
</g>
<defs>
<filter id="filter0_d_6_48482" x="0" y="0" width="36" height="36" filterUnits="userSpaceOnUse" color-interpolation-filters="sRGB">
<feFlood flood-opacity="0" result="BackgroundImageFix"/>
<feColorMatrix in="SourceAlpha" type="matrix" values="0 0 0 0 0 0 0 0 0 0 0 0 0 0 0 0 0 0 127 0" result="hardAlpha"/>
<feOffset dy="1"/>
<feGaussianBlur stdDeviation="1"/>
<feComposite in2="hardAlpha" operator="out"/>
<feColorMatrix type="matrix" values="0 0 0 0 0.164706 0 0 0 0 0.211765 0 0 0 0 0.278431 0 0 0 0.05 0"/>
<feBlend mode="normal" in2="BackgroundImageFix" result="effect1_dropShadow_6_48482"/>
<feBlend mode="normal" in="SourceGraphic" in2="effect1_dropShadow_6_48482" result="shape"/>
</filter>
<clipPath id="clip0_6_48482">
<rect width="16" height="16" fill="white" transform="translate(10 9)"/>
</clipPath>
</defs>
</svg>
