<svg width="36" height="36" viewBox="0 0 36 36" fill="none" xmlns="http://www.w3.org/2000/svg">
<g filter="url(#filter0_d_6_48478)">
<path d="M2 5C2 2.79086 3.79086 1 6 1H34V33H6C3.79086 33 2 31.2091 2 29V5Z" fill="#EFF6FF" shape-rendering="crispEdges"/>
<path d="M6 1.5H33.5V32.5H6C4.067 32.5 2.5 30.933 2.5 29V5C2.5 3.067 4.067 1.5 6 1.5Z" stroke="#0070B9" shape-rendering="crispEdges"/>
<g clip-path="url(#clip0_6_48478)">
<path d="M23.5 19H21.28C21.18 19 20.98 19.09 20.84 19.34C20.42 20.04 19.56 21 18 21C16.44 21 15.58 20.05 15.16 19.34C15.01 19.09 14.82 19 14.72 19H12.5V22C12.5 22.28 12.72 22.5 13 22.5H23C23.28 22.5 23.5 22.28 23.5 22V19ZM23.5 17.5V12C23.5 11.72 23.28 11.5 23 11.5H13C12.72 11.5 12.5 11.72 12.5 12V17.5H14.72C15.54 17.5 16.14 18.05 16.46 18.58C16.72 19.03 17.17 19.5 18 19.5C18.83 19.5 19.28 19.03 19.54 18.58C19.86 18.05 20.46 17.5 21.28 17.5H23.5ZM11 12C11 10.9 11.9 10 13 10H23C24.1 10 25 10.9 25 12V22C25 23.1 24.1 24 23 24H13C11.9 24 11 23.1 11 22V12Z" fill="#0070B9"/>
</g>
</g>
<defs>
<filter id="filter0_d_6_48478" x="0" y="0" width="36" height="36" filterUnits="userSpaceOnUse" color-interpolation-filters="sRGB">
<feFlood flood-opacity="0" result="BackgroundImageFix"/>
<feColorMatrix in="SourceAlpha" type="matrix" values="0 0 0 0 0 0 0 0 0 0 0 0 0 0 0 0 0 0 127 0" result="hardAlpha"/>
<feOffset dy="1"/>
<feGaussianBlur stdDeviation="1"/>
<feComposite in2="hardAlpha" operator="out"/>
<feColorMatrix type="matrix" values="0 0 0 0 0.164706 0 0 0 0 0.211765 0 0 0 0 0.278431 0 0 0 0.05 0"/>
<feBlend mode="normal" in2="BackgroundImageFix" result="effect1_dropShadow_6_48478"/>
<feBlend mode="normal" in="SourceGraphic" in2="effect1_dropShadow_6_48478" result="shape"/>
</filter>
<clipPath id="clip0_6_48478">
<rect width="16" height="16" fill="white" transform="translate(10 9)"/>
</clipPath>
</defs>
</svg>
