<svg width="16" height="16" viewBox="0 0 16 16" fill="none" xmlns="http://www.w3.org/2000/svg">
<g clip-path="url(#clip0_6_47696)">
<path d="M0.34122 7.9055C0.340848 9.24981 0.692103 10.5624 1.36001 11.7194L0.277344 15.6724L4.32274 14.6117C5.44165 15.2208 6.69529 15.5399 7.96925 15.54H7.9726C12.1782 15.54 15.6016 12.1178 15.6034 7.91151C15.6042 5.87325 14.8112 3.9566 13.3703 2.51462C11.9297 1.07275 10.0137 0.278274 7.97229 0.277344C3.76621 0.277344 0.343018 3.69936 0.341282 7.9055" fill="url(#paint0_linear_6_47696)"/>
<path d="M0.0663566 7.90177C0.0659225 9.29445 0.429767 10.654 1.12149 11.8524L0 15.9471L4.19045 14.8484C5.34505 15.4779 6.64502 15.8098 7.96781 15.8103H7.97122C12.3277 15.8103 15.8741 12.265 15.876 7.90809C15.8767 5.79659 15.0551 3.81104 13.5628 2.3174C12.0703 0.823938 10.0858 0.000868217 7.97122 0C3.61401 0 0.068093 3.54481 0.0663566 7.90177ZM2.56192 11.646L2.40546 11.3976C1.74772 10.3518 1.40056 9.14326 1.40105 7.90226C1.40242 4.28087 4.34964 1.33457 7.97371 1.33457C9.72874 1.33532 11.3781 2.01947 12.6187 3.26078C13.8592 4.5022 14.5418 6.15243 14.5413 7.9076C14.5397 11.529 11.5924 14.4757 7.97122 14.4757H7.96862C6.78952 14.475 5.63312 14.1584 4.62462 13.56L4.38462 13.4177L1.89792 14.0696L2.56192 11.646Z" fill="url(#paint1_linear_6_47696)"/>
<path d="M6.00187 4.59977C5.8539 4.27091 5.69818 4.26427 5.55746 4.2585C5.44224 4.25354 5.31052 4.25391 5.17892 4.25391C5.0472 4.25391 4.83319 4.30346 4.65229 4.50098C4.4712 4.69869 3.96094 5.17646 3.96094 6.14818C3.96094 7.1199 4.66872 8.05906 4.76739 8.19097C4.86618 8.32263 6.13377 10.3805 8.14134 11.1722C9.8098 11.8302 10.1493 11.6993 10.5114 11.6663C10.8736 11.6334 11.6801 11.1887 11.8446 10.7275C12.0092 10.2663 12.0092 9.87103 11.9599 9.78842C11.9105 9.70613 11.7788 9.6567 11.5813 9.55797C11.3838 9.45925 10.4127 8.98135 10.2316 8.91543C10.0505 8.84957 9.91889 8.8167 9.78717 9.01447C9.65545 9.21193 9.27722 9.6567 9.16193 9.78842C9.04677 9.92045 8.93148 9.93689 8.73402 9.8381C8.53638 9.739 7.90029 9.53069 7.14562 8.85788C6.55846 8.33435 6.16205 7.68783 6.04683 7.49007C5.9316 7.29261 6.03449 7.18557 6.13353 7.08715C6.22227 6.99866 6.33111 6.85652 6.42996 6.74123C6.52844 6.62588 6.56131 6.54359 6.62717 6.41187C6.69309 6.28002 6.6601 6.16467 6.6108 6.06588C6.56131 5.96709 6.1775 4.99028 6.00187 4.59977Z" fill="white"/>
</g>
<defs>
<linearGradient id="paint0_linear_6_47696" x1="766.581" y1="1539.78" x2="766.581" y2="0.277344" gradientUnits="userSpaceOnUse">
<stop stop-color="#1FAF38"/>
<stop offset="1" stop-color="#60D669"/>
</linearGradient>
<linearGradient id="paint1_linear_6_47696" x1="793.798" y1="1594.71" x2="793.798" y2="0" gradientUnits="userSpaceOnUse">
<stop stop-color="#F9F9F9"/>
<stop offset="1" stop-color="white"/>
</linearGradient>
<clipPath id="clip0_6_47696">
<rect width="15.88" height="16" fill="white"/>
</clipPath>
</defs>
</svg>
