<svg width="42" height="43" viewBox="0 0 42 43" fill="none" xmlns="http://www.w3.org/2000/svg">
<circle opacity="0.12" cx="21" cy="21.5" r="19" fill="#0070B9"/>
<circle cx="21" cy="21.5" r="20.5" stroke="#0070B9"/>
<path d="M16.8031 23.8992C16.644 23.8992 16.4914 23.836 16.3789 23.7235C16.2663 23.611 16.2031 23.4583 16.2031 23.2992C16.2031 23.1401 16.2663 22.9875 16.3789 22.875C16.4914 22.7624 16.644 22.6992 16.8031 22.6992H25.2031C25.3623 22.6992 25.5149 22.7624 25.6274 22.875C25.7399 22.9875 25.8031 23.1401 25.8031 23.2992C25.8031 23.4583 25.7399 23.611 25.6274 23.7235C25.5149 23.836 25.3623 23.8992 25.2031 23.8992H16.8031ZM16.8031 27.4992C16.644 27.4992 16.4914 27.436 16.3789 27.3235C16.2663 27.211 16.2031 27.0583 16.2031 26.8992C16.2031 26.7401 16.2663 26.5875 16.3789 26.475C16.4914 26.3624 16.644 26.2992 16.8031 26.2992H25.2031C25.3623 26.2992 25.5149 26.3624 25.6274 26.475C25.7399 26.5875 25.8031 26.7401 25.8031 26.8992C25.8031 27.0583 25.7399 27.211 25.6274 27.3235C25.5149 27.436 25.3623 27.4992 25.2031 27.4992H16.8031Z" fill="#0070B9"/>
<path fill-rule="evenodd" clip-rule="evenodd" d="M22.4236 10.6992H14.4016C13.9242 10.6992 13.4663 10.8889 13.1288 11.2264C12.7912 11.564 12.6016 12.0218 12.6016 12.4992V30.4992C12.6016 30.9766 12.7912 31.4344 13.1288 31.772C13.4663 32.1096 13.9242 32.2992 14.4016 32.2992H27.6016C28.079 32.2992 28.5368 32.1096 28.8744 31.772C29.2119 31.4344 29.4016 30.9766 29.4016 30.4992V18.1416C29.4014 17.691 29.2323 17.2568 28.9276 16.9248L23.7508 11.2824C23.5821 11.0985 23.3769 10.9517 23.1485 10.8513C22.92 10.7509 22.6731 10.6991 22.4236 10.6992ZM13.8016 12.4992C13.8016 12.3401 13.8648 12.1875 13.9773 12.075C14.0898 11.9624 14.2424 11.8992 14.4016 11.8992H22.4236C22.5068 11.8991 22.5892 11.9164 22.6654 11.9498C22.7416 11.9833 22.8101 12.0323 22.8664 12.0936L28.0432 17.736C28.1449 17.8466 28.2014 17.9914 28.2016 18.1416V30.4992C28.2016 30.6583 28.1383 30.811 28.0258 30.9235C27.9133 31.036 27.7607 31.0992 27.6016 31.0992H14.4016C14.2424 31.0992 14.0898 31.036 13.9773 30.9235C13.8648 30.811 13.8016 30.6583 13.8016 30.4992V12.4992Z" fill="#0070B9"/>
<path d="M22.2 17.8992H28.8C28.9591 17.8992 29.1117 17.9624 29.2243 18.075C29.3368 18.1875 29.4 18.3401 29.4 18.4992C29.4 18.6583 29.3368 18.811 29.2243 18.9235C29.1117 19.036 28.9591 19.0992 28.8 19.0992H21.6C21.4409 19.0992 21.2883 19.036 21.1757 18.9235C21.0632 18.811 21 18.6583 21 18.4992V11.2992C21 11.1401 21.0632 10.9875 21.1757 10.875C21.2883 10.7624 21.4409 10.6992 21.6 10.6992C21.7591 10.6992 21.9117 10.7624 22.0243 10.875C22.1368 10.9875 22.2 11.1401 22.2 11.2992V17.8992Z" fill="#0070B9"/>
</svg>
