<svg width="16" height="16" viewBox="0 0 16 16" fill="none" xmlns="http://www.w3.org/2000/svg">
<path d="M4.87114 8.86144C4.72852 8.87933 4.58627 8.89842 4.4444 8.91872M4.87114 8.86144C5.896 8.7329 6.94025 8.66667 7.99996 8.66667C9.05967 8.66667 10.1039 8.7329 11.1288 8.86144M4.87114 8.86144L4.64642 11.3333M11.1288 8.86144C11.2714 8.87933 11.4137 8.89842 11.5555 8.91872M11.1288 8.86144L11.3535 11.3333M11.3535 11.3333L11.4894 12.8285C11.5249 13.2189 11.2175 13.5556 10.8255 13.5556H5.17443C4.7824 13.5556 4.475 13.2189 4.5105 12.8285L4.64642 11.3333M11.3535 11.3333H12C12.7363 11.3333 13.3333 10.7364 13.3333 10V6.27004C13.3333 5.62948 12.8782 5.07604 12.2447 4.98125C11.8692 4.92506 11.4913 4.87621 11.1111 4.83485M4.64642 11.3333H3.99996C3.26358 11.3333 2.66663 10.7364 2.66663 10V6.27004C2.66663 5.62948 3.12168 5.07604 3.75518 4.98125C4.13072 4.92506 4.50866 4.87621 4.88885 4.83485M11.1111 4.83485C10.0893 4.7237 9.05129 4.66667 7.99996 4.66667C6.94863 4.66667 5.91061 4.7237 4.88885 4.83485M11.1111 4.83485V2.66667C11.1111 2.29848 10.8126 2 10.4444 2H5.55551C5.18733 2 4.88885 2.29848 4.88885 2.66667V4.83485M11.5555 6.88889H11.56V6.89333H11.5555V6.88889ZM9.77774 6.88889H9.78218V6.89333H9.77774V6.88889Z" stroke="#231F20" stroke-width="0.888889" stroke-linecap="round" stroke-linejoin="round"/>
</svg>
