<svg width="16" height="16" viewBox="0 0 16 16" fill="none" xmlns="http://www.w3.org/2000/svg">
<path d="M5.60521 2H3.73854C3.45564 2 3.18433 2.11238 2.98429 2.31242C2.78426 2.51246 2.67188 2.78377 2.67188 3.06667V6.26667C2.67188 6.40674 2.69947 6.54545 2.75307 6.67486C2.80668 6.80428 2.88525 6.92187 2.98429 7.02091C3.08334 7.11996 3.20093 7.19853 3.33035 7.25214C3.45976 7.30574 3.59846 7.33333 3.73854 7.33333H5.60521C5.74528 7.33333 5.88399 7.30574 6.0134 7.25214C6.14282 7.19853 6.26041 7.11996 6.35946 7.02091C6.4585 6.92187 6.53707 6.80428 6.59068 6.67486C6.64428 6.54545 6.67187 6.40674 6.67187 6.26667V3.06667C6.67187 2.78377 6.55949 2.51246 6.35946 2.31242C6.15942 2.11238 5.88811 2 5.60521 2ZM5.60521 10H3.73854C3.45564 10 3.18433 10.1124 2.98429 10.3124C2.78426 10.5125 2.67188 10.7838 2.67188 11.0667V12.9333C2.67188 13.2162 2.78426 13.4875 2.98429 13.6876C3.18433 13.8876 3.45564 14 3.73854 14H5.60521C5.88811 14 6.15942 13.8876 6.35946 13.6876C6.55949 13.4875 6.67187 13.2162 6.67187 12.9333V11.0667C6.67187 10.7838 6.55949 10.5125 6.35946 10.3124C6.15942 10.1124 5.88811 10 5.60521 10ZM12.2719 2H10.4052C10.1223 2 9.851 2.11238 9.65096 2.31242C9.45092 2.51246 9.33854 2.78377 9.33854 3.06667V4.93333C9.33854 5.21623 9.45092 5.48754 9.65096 5.68758C9.851 5.88762 10.1223 6 10.4052 6H12.2719C12.5548 6 12.8261 5.88762 13.0261 5.68758C13.2262 5.48754 13.3385 5.21623 13.3385 4.93333V3.06667C13.3385 2.78377 13.2262 2.51246 13.0261 2.31242C12.8261 2.11238 12.5548 2 12.2719 2ZM12.2719 8.66667H10.4052C10.1223 8.66667 9.851 8.77905 9.65096 8.97909C9.45092 9.17912 9.33854 9.45044 9.33854 9.73333V12.9333C9.33854 13.2162 9.45092 13.4875 9.65096 13.6876C9.851 13.8876 10.1223 14 10.4052 14H12.2719C12.5548 14 12.8261 13.8876 13.0261 13.6876C13.2262 13.4875 13.3385 13.2162 13.3385 12.9333V9.73333C13.3385 9.45044 13.2262 9.17912 13.0261 8.97909C12.8261 8.77905 12.5548 8.66667 12.2719 8.66667Z" stroke="#231F20" stroke-width="1.2" stroke-miterlimit="10" stroke-linejoin="round"/>
</svg>
