<svg width="16" height="16" viewBox="0 0 16 16" fill="none" xmlns="http://www.w3.org/2000/svg">
<path d="M10.5 4.25C10.5 5.49264 9.49264 6.5 8.25 6.5C7.00736 6.5 6 5.49264 6 4.25C6 3.00736 7.00736 2 8.25 2C9.49264 2 10.5 3.00736 10.5 4.25Z" fill="white"/>
<path d="M4.00061 12.8229C4.00021 12.7986 4 12.7743 4 12.75C4 10.4028 5.90279 8.5 8.25 8.5C10.5972 8.5 12.5 10.4028 12.5 12.75V12.7517C12.5 12.7755 12.4998 12.7992 12.4994 12.8229C11.2582 13.5702 9.80432 14 8.25 14C6.69568 14 5.24176 13.5702 4.00061 12.8229Z" fill="white"/>
<path d="M10.5 4.25C10.5 5.49264 9.49264 6.5 8.25 6.5C7.00736 6.5 6 5.49264 6 4.25C6 3.00736 7.00736 2 8.25 2C9.49264 2 10.5 3.00736 10.5 4.25Z" stroke="#231F20" stroke-linecap="round" stroke-linejoin="round"/>
<path d="M4.00061 12.8229C4.00021 12.7986 4 12.7743 4 12.75C4 10.4028 5.90279 8.5 8.25 8.5C10.5972 8.5 12.5 10.4028 12.5 12.75V12.7517C12.5 12.7755 12.4998 12.7992 12.4994 12.8229C11.2582 13.5702 9.80432 14 8.25 14C6.69568 14 5.24176 13.5702 4.00061 12.8229Z" stroke="#231F20" stroke-linecap="round" stroke-linejoin="round"/>
</svg>
